<?xml version="1.0" encoding="utf-8"?>
<!-- Generator: Adobe Illustrator 26.2.1, SVG Export Plug-In . SVG Version: 6.00 Build 0)  -->
<svg version="1.1" id="Capa_1" xmlns="http://www.w3.org/2000/svg" xmlns:xlink="http://www.w3.org/1999/xlink" x="0px" y="0px"
	 viewBox="0 0 1055 198.6" style="enable-background:new 0 0 1055 198.6;" xml:space="preserve">
<style type="text/css">
	.st0{fill:#00A69D;}
	.st1{opacity:0.3;fill:#00A69D;}
	.st2{fill:#F9B040;}
	.st3{opacity:0.3;fill:#F9B040;}
	.st4{fill:#ED4137;}
	.st5{fill:none;stroke:#FFFFFF;stroke-width:1.7485;stroke-miterlimit:10;}
	.st6{fill:none;stroke:#FFFFFF;stroke-width:1.7485;stroke-miterlimit:10;stroke-dasharray:9.3803,9.3803;}
	.st7{fill:none;stroke:#FFFFFF;stroke-width:1.7485;stroke-miterlimit:10;stroke-dasharray:10.0144,10.0144;}
	.st8{fill:#333333;}
</style>
<g>
	<g>
		<path class="st0" d="M0,94.1l105.3,104.5l0,0l0.1-0.1l18.4-18.5c-7.3-7.2-7.3-18.9-0.1-26.1c5.6-5.6,13.9-6.9,20.7-3.8l0,0
			c1.4,0.6,2.7,1.4,3.9,2.4c0.5,0.4,1,0.8,1.4,1.3l1-1l17.5-17.6L64.3,32L63,30.7l-5.5,5.6l-0.6,0.6L25.3,68.6l-6.5,6.6L0,94.1z"/>
		<path class="st1" d="M18.8,75.2l86.4,123.4l0.1-0.1l23.5-16.4c-6.4-9.2-4.2-21.9,5-28.3c3.2-2.3,6.8-3.4,10.5-3.7l0,0
			c0.4,0,0.7,0,1.1,0c0.8,0,1.7,0,2.5,0.1l16.4-18.6L56.8,36.9L25.3,68.6L18.8,75.2z"/>
		<path class="st2" d="M19.7,59.5l5.6,9.1l79.9,130l0.1-0.1l24.5-15c-5.9-9.6-2.9-22.1,6.7-28c3.7-2.3,7.8-3.2,11.8-3
			c0.8,0,1.7,0.1,2.4,0.3l17.5-17.6L64.3,32l-6.9,4.2l-13.5,8.3L19.7,59.5z"/>
		<path class="st3" d="M43.9,44.6l61.4,154l0.1-0.1l24.5-15c-5.9-9.6-2.9-22.1,6.7-28c3.7-2.3,7.8-3.2,11.8-3c0.8,0,1.7,0.1,2.4,0.3
			l17.5-17.6L64.3,32l-6.9,4.2L43.9,44.6z"/>
		<path class="st4" d="M51.4,32.5l53.9,166.2l29.4-9.5c-3.7-11.4,2.6-23.7,14-27.4c11.4-3.7,23.7,2.6,27.4,14l29.4-9.5L151.5,0
			l-29.4,9.5c3.7,11.4-2.6,23.7-14,27.4c-11.4,3.7-23.7-2.6-27.4-14L51.4,32.5z"/>
		<g>
			<g>
				<path class="st5" d="M121.7,186l5-1.6c-0.1-1.8-0.1-3.5,0.1-5.2"/>
				<path class="st6" d="M129.4,170.1c3.3-6.9,9.3-12.5,17.1-15.1c9.4-3.1,19.3-1,26.6,4.7"/>
				<path class="st5" d="M176.5,163c1.2,1.3,2.2,2.7,3.2,4.2l5-1.6"/>
				<polyline class="st5" points="191.6,163.3 196.6,161.7 195,156.7 				"/>
				<line class="st7" x1="191.9" y1="147.2" x2="150.2" y2="18.6"/>
				<polyline class="st5" points="148.6,13.8 147,8.8 142,10.4 				"/>
				<path class="st5" d="M135.1,12.7l-5,1.6c0.1,1.8,0.1,3.5-0.1,5.2"/>
				<path class="st6" d="M127.4,28.5c-3.3,6.9-9.3,12.5-17.1,15.1c-9.4,3.1-19.3,1-26.6-4.7"/>
				<path class="st5" d="M80.3,35.6c-1.2-1.3-2.2-2.7-3.2-4.2l-5,1.6"/>
				<polyline class="st5" points="65.2,35.3 60.2,37 61.8,41.9 				"/>
				<line class="st7" x1="64.9" y1="51.5" x2="106.6" y2="180.1"/>
				<polyline class="st5" points="108.2,184.8 109.8,189.8 114.8,188.2 				"/>
			</g>
		</g>
	</g>
	<path class="st8" d="M258.3,159.3c-6.9,0-13-1.8-18.2-5.3c-5.2-3.5-9-8.3-11.3-14.3l8.5-4c2.1,4.4,5,7.9,8.7,10.5
		c3.7,2.6,7.9,3.9,12.4,3.9c4.3,0,8-1.1,10.9-3.2c3-2.1,4.5-4.9,4.5-8.3c0-2.5-0.7-4.5-2.2-6c-1.4-1.5-3.1-2.6-5-3.4
		c-1.9-0.8-3.6-1.4-5-1.8l-10.4-3c-6.7-1.9-11.5-4.5-14.4-8c-3-3.4-4.5-7.4-4.5-11.9c0-4.2,1.1-7.9,3.2-11.1
		c2.2-3.1,5.1-5.6,8.8-7.3c3.7-1.7,7.8-2.6,12.3-2.6c6.1,0,11.7,1.6,16.7,4.8c5,3.2,8.5,7.6,10.6,13.3l-8.6,4.1
		c-1.8-4.1-4.4-7.2-7.8-9.5s-7.1-3.4-11.3-3.4c-4.1,0-7.3,1-9.7,3.1c-2.4,2.1-3.6,4.7-3.6,7.8c0,2.4,0.6,4.4,1.9,5.8
		c1.3,1.4,2.7,2.5,4.4,3.2c1.7,0.7,3.1,1.3,4.4,1.6l12,3.5c5.8,1.7,10.4,4.4,13.7,8c3.3,3.6,4.9,7.8,4.9,12.7c0,4-1.1,7.5-3.3,10.7
		c-2.2,3.2-5.2,5.6-9.1,7.4C267.8,158.4,263.3,159.3,258.3,159.3z"/>
	<path class="st8" d="M311.2,157.7l-24.8-72.4h11.5l20.5,63.3h-4l19.3-63.3h10.1l19.3,63.3h-4l20.7-63.3H391l-24.8,72.4H356
		l-18.8-62h2.8l-18.8,62H311.2z"/>
	<path class="st8" d="M397.6,71.9V57.1h10.1v14.9H397.6z M397.6,157.7V85.3h10.1v72.4H397.6z"/>
	<path class="st8" d="M430.7,157.7V95.4h-14.4V85.3h14.4v-6.5c0-5,1.1-9.3,3.4-12.8c2.2-3.5,5.2-6.1,8.9-7.9
		c3.7-1.8,7.6-2.7,11.9-2.7c0.9,0,1.9,0.1,3.1,0.2c1.2,0.1,2.1,0.3,2.8,0.5v9.2c-0.6-0.2-1.5-0.3-2.6-0.3c-1.1,0-1.8-0.1-2.3-0.1
		c-4.3,0-7.9,1-10.8,3.1c-2.9,2.1-4.3,5.7-4.3,10.8v6.5h17.7v10.1h-17.7v62.2H430.7z"/>
	<path class="st8" d="M500.1,158.5c-6.5,0-11.5-1.9-15-5.7c-3.5-3.8-5.3-9.2-5.3-16.2V95.4h-13.4V85.3h3.4c3.1,0,5.5-1,7.3-3
		c1.8-2,2.7-4.6,2.7-7.6v-6.1h10.1v16.7h15.9v10.1h-15.9v41.2c0,2.4,0.4,4.6,1.1,6.4c0.7,1.8,2,3.3,3.7,4.4c1.8,1.1,4.1,1.6,7.1,1.6
		c0.7,0,1.6,0,2.6-0.1c1-0.1,1.8-0.2,2.6-0.3v9c-1.1,0.3-2.3,0.5-3.6,0.6C502,158.4,500.9,158.5,500.1,158.5z"/>
	<path class="st8" d="M569.7,158.8c-12.6,0-22.3-3.4-29.2-10.2c-6.9-6.8-10.4-16.3-10.4-28.5V78.5h-17.5V53.7h1
		c5.3,0,9.4-1.3,12.3-4c2.9-2.7,4.3-6.7,4.3-12v-7.6h28.6v23.6H583v24.8h-24.4v39.8c0,3.6,0.6,6.5,1.9,8.9c1.3,2.4,3.2,4.1,5.9,5.2
		c2.7,1.1,6,1.7,9.9,1.7c0.9,0,1.9-0.1,3-0.2c1.1-0.1,2.3-0.3,3.6-0.4v24.2c-1.9,0.3-4.1,0.5-6.5,0.8
		C574.1,158.7,571.8,158.8,569.7,158.8z"/>
	<path class="st8" d="M599.7,157.7v-104h28.6v104H599.7z"/>
	<path class="st8" d="M700.3,160c-10.4,0-19.8-2.4-28.1-7.1c-8.3-4.8-14.9-11.3-19.8-19.5c-4.9-8.3-7.3-17.5-7.3-27.8
		s2.4-19.5,7.2-27.7c4.8-8.2,11.4-14.6,19.8-19.3c8.4-4.7,17.8-7,28.2-7c7.7,0,14.9,1.3,21.5,4c6.6,2.7,12.2,6.4,16.9,11.1
		c4.7,4.8,8.1,10.4,10.1,16.9l-24.8,10.7c-1.8-5.2-4.8-9.3-9-12.4c-4.3-3-9.2-4.6-14.8-4.6c-5,0-9.4,1.2-13.2,3.6
		c-3.9,2.4-6.9,5.8-9.1,10.1c-2.2,4.3-3.3,9.3-3.3,14.9c0,5.6,1.1,10.5,3.3,14.9c2.2,4.3,5.3,7.7,9.1,10.1c3.9,2.4,8.3,3.6,13.2,3.6
		c5.7,0,10.7-1.5,14.9-4.6c4.2-3,7.2-7.2,9-12.4l24.8,10.9c-1.9,6.1-5.2,11.6-9.9,16.4c-4.7,4.8-10.3,8.6-16.9,11.3
		C715.4,158.6,708.1,160,700.3,160z"/>
	<path class="st8" d="M765.6,157.7V13.5h28.6v92.4l-10.7-3.4l45.9-48.7h35.2l-37.7,41.9l37.5,62.1H832l-31.4-52.7l16.6-4.2
		l-31.8,34.7l8.8-16.6v38.8H765.6z"/>
	<path class="st8" d="M925.3,160c-11,0-20.6-2.4-28.8-7.3c-8.1-4.9-14.4-11.5-18.9-19.7c-4.4-8.3-6.7-17.4-6.7-27.4
		c0-10.4,2.3-19.7,7-27.8c4.6-8.1,10.9-14.5,18.8-19.2c7.9-4.7,16.8-7,26.7-7c8.2,0,15.5,1.3,21.9,3.9c6.3,2.6,11.7,6.3,16.1,10.9
		c4.4,4.7,7.7,10.1,10,16.3c2.3,6.2,3.4,12.9,3.4,20.1c0,2-0.1,4-0.3,6c-0.2,2-0.5,3.7-1,5h-77.9V92.7h61.7l-13.5,9.9
		c1.3-5.5,1.2-10.3-0.2-14.6c-1.4-4.3-3.8-7.6-7.3-10.1c-3.5-2.5-7.8-3.7-12.9-3.7c-5,0-9.2,1.2-12.8,3.6c-3.6,2.4-6.2,6-8,10.7
		c-1.8,4.7-2.5,10.4-2.1,17.1c-0.5,5.8,0.2,11,2.1,15.4c1.9,4.4,4.8,7.9,8.8,10.4c3.9,2.5,8.7,3.7,14.3,3.7c5.1,0,9.4-1,13-3
		c3.6-2,6.4-4.8,8.5-8.4l22.8,10.9c-2,5.1-5.2,9.5-9.6,13.3c-4.4,3.8-9.6,6.8-15.5,8.9C939,158.9,932.5,160,925.3,160z"/>
	<path class="st8" d="M1041.7,158.8c-12.6,0-22.3-3.4-29.2-10.2c-6.9-6.8-10.4-16.3-10.4-28.5V78.5h-17.5V53.7h1
		c5.3,0,9.4-1.3,12.3-4c2.9-2.7,4.3-6.7,4.3-12v-7.6h28.6v23.6h24.4v24.8h-24.4v39.8c0,3.6,0.6,6.5,1.9,8.9c1.3,2.4,3.2,4.1,5.9,5.2
		c2.7,1.1,6,1.7,9.9,1.7c0.9,0,1.9-0.1,3-0.2c1.1-0.1,2.3-0.3,3.6-0.4v24.2c-1.9,0.3-4.1,0.5-6.5,0.8
		C1046.1,158.7,1043.8,158.8,1041.7,158.8z"/>
</g>
<circle class="st4" cx="613.9" cy="31" r="17.5"/>
</svg>
